<svg xmlns="http://www.w3.org/2000/svg" width="2220" height="560">
<rect width="100%" height="100%" fill="white"/>
<text x="1110.0" y="32" text-anchor="middle" font-family="sans-serif" font-size="20">Missing values by column</text>
<text x="18" y="230.0" transform="rotate(-90 18 230.0)" text-anchor="middle" font-family="sans-serif" font-size="13">Missing row count</text>
<line x1="90" y1="70" x2="90" y2="390" stroke="#333"/>
<line x1="90" y1="390" x2="2190" y2="390" stroke="#333"/>
<rect x="103.1" y="390.0" width="61.0" height="0.0" fill="#3973ac"/>
<text x="133.5" y="384.0" text-anchor="middle" font-family="sans-serif" font-size="11">0</text>
<text x="133.5" y="402" transform="rotate(55 133.5 402)" text-anchor="start" font-family="sans-serif" font-size="10">sample_id</text>
<rect x="190.1" y="390.0" width="61.0" height="0.0" fill="#3973ac"/>
<text x="220.6" y="384.0" text-anchor="middle" font-family="sans-serif" font-size="11">0</text>
<text x="220.6" y="402" transform="rotate(55 220.6 402)" text-anchor="start" font-family="sans-serif" font-size="10">lot_id</text>
<rect x="277.2" y="390.0" width="61.0" height="0.0" fill="#3973ac"/>
<text x="307.7" y="384.0" text-anchor="middle" font-family="sans-serif" font-size="11">0</text>
<text x="307.7" y="402" transform="rotate(55 307.7 402)" text-anchor="start" font-family="sans-serif" font-size="10">tool_id</text>
<rect x="364.3" y="390.0" width="61.0" height="0.0" fill="#3973ac"/>
<text x="394.8" y="384.0" text-anchor="middle" font-family="sans-serif" font-size="11">0</text>
<text x="394.8" y="402" transform="rotate(55 394.8 402)" text-anchor="start" font-family="sans-serif" font-size="10">sequence</text>
<rect x="451.4" y="170.0" width="61.0" height="220.0" fill="#3973ac"/>
<text x="481.9" y="164.0" text-anchor="middle" font-family="sans-serif" font-size="11">11</text>
<text x="481.9" y="402" transform="rotate(55 481.9 402)" text-anchor="start" font-family="sans-serif" font-size="10">pr_tone</text>
<rect x="538.5" y="110.0" width="61.0" height="280.0" fill="#3973ac"/>
<text x="569.0" y="104.0" text-anchor="middle" font-family="sans-serif" font-size="11">14</text>
<text x="569.0" y="402" transform="rotate(55 569.0 402)" text-anchor="start" font-family="sans-serif" font-size="10">retained_pattern_source</text>
<rect x="625.6" y="170.0" width="61.0" height="220.0" fill="#3973ac"/>
<text x="656.0" y="164.0" text-anchor="middle" font-family="sans-serif" font-size="11">11</text>
<text x="656.0" y="402" transform="rotate(55 656.0 402)" text-anchor="start" font-family="sans-serif" font-size="10">nominal_cd_nm</text>
<rect x="712.6" y="210.0" width="61.0" height="180.0" fill="#3973ac"/>
<text x="743.1" y="204.0" text-anchor="middle" font-family="sans-serif" font-size="11">9</text>
<text x="743.1" y="402" transform="rotate(55 743.1 402)" text-anchor="start" font-family="sans-serif" font-size="10">exposure_dose_mj_cm2</text>
<rect x="799.7" y="190.0" width="61.0" height="200.0" fill="#3973ac"/>
<text x="830.2" y="184.0" text-anchor="middle" font-family="sans-serif" font-size="11">10</text>
<text x="830.2" y="402" transform="rotate(55 830.2 402)" text-anchor="start" font-family="sans-serif" font-size="10">normalized_dose_pct</text>
<rect x="886.8" y="110.0" width="61.0" height="280.0" fill="#3973ac"/>
<text x="917.3" y="104.0" text-anchor="middle" font-family="sans-serif" font-size="11">14</text>
<text x="917.3" y="402" transform="rotate(55 917.3 402)" text-anchor="start" font-family="sans-serif" font-size="10">focus_um</text>
<rect x="973.9" y="330.0" width="61.0" height="60.0" fill="#3973ac"/>
<text x="1004.4" y="324.0" text-anchor="middle" font-family="sans-serif" font-size="11">3</text>
<text x="1004.4" y="402" transform="rotate(55 1004.4 402)" text-anchor="start" font-family="sans-serif" font-size="10">coat_thickness_nm</text>
<rect x="1061.0" y="190.0" width="61.0" height="200.0" fill="#3973ac"/>
<text x="1091.5" y="184.0" text-anchor="middle" font-family="sans-serif" font-size="11">10</text>
<text x="1091.5" y="402" transform="rotate(55 1091.5 402)" text-anchor="start" font-family="sans-serif" font-size="10">softbake_temp_c</text>
<rect x="1148.1" y="210.0" width="61.0" height="180.0" fill="#3973ac"/>
<text x="1178.5" y="204.0" text-anchor="middle" font-family="sans-serif" font-size="11">9</text>
<text x="1178.5" y="402" transform="rotate(55 1178.5 402)" text-anchor="start" font-family="sans-serif" font-size="10">peb_temp_c</text>
<rect x="1235.1" y="110.0" width="61.0" height="280.0" fill="#3973ac"/>
<text x="1265.6" y="104.0" text-anchor="middle" font-family="sans-serif" font-size="11">14</text>
<text x="1265.6" y="402" transform="rotate(55 1265.6 402)" text-anchor="start" font-family="sans-serif" font-size="10">develop_time_s</text>
<rect x="1322.2" y="310.0" width="61.0" height="80.0" fill="#3973ac"/>
<text x="1352.7" y="304.0" text-anchor="middle" font-family="sans-serif" font-size="11">4</text>
<text x="1352.7" y="402" transform="rotate(55 1352.7 402)" text-anchor="start" font-family="sans-serif" font-size="10">developer_concentration_pct</text>
<rect x="1409.3" y="70.0" width="61.0" height="320.0" fill="#3973ac"/>
<text x="1439.8" y="64.0" text-anchor="middle" font-family="sans-serif" font-size="11">16</text>
<text x="1439.8" y="402" transform="rotate(55 1439.8 402)" text-anchor="start" font-family="sans-serif" font-size="10">field_x</text>
<rect x="1496.4" y="250.0" width="61.0" height="140.0" fill="#3973ac"/>
<text x="1526.9" y="244.0" text-anchor="middle" font-family="sans-serif" font-size="11">7</text>
<text x="1526.9" y="402" transform="rotate(55 1526.9 402)" text-anchor="start" font-family="sans-serif" font-size="10">field_y</text>
<rect x="1583.5" y="390.0" width="61.0" height="0.0" fill="#3973ac"/>
<text x="1614.0" y="384.0" text-anchor="middle" font-family="sans-serif" font-size="11">0</text>
<text x="1614.0" y="402" transform="rotate(55 1614.0 402)" text-anchor="start" font-family="sans-serif" font-size="10">resist_line_cd_nm</text>
<rect x="1670.6" y="390.0" width="61.0" height="0.0" fill="#3973ac"/>
<text x="1701.0" y="384.0" text-anchor="middle" font-family="sans-serif" font-size="11">0</text>
<text x="1701.0" y="402" transform="rotate(55 1701.0 402)" text-anchor="start" font-family="sans-serif" font-size="10">cdu_3sigma_nm</text>
<rect x="1757.6" y="390.0" width="61.0" height="0.0" fill="#3973ac"/>
<text x="1788.1" y="384.0" text-anchor="middle" font-family="sans-serif" font-size="11">0</text>
<text x="1788.1" y="402" transform="rotate(55 1788.1 402)" text-anchor="start" font-family="sans-serif" font-size="10">ler_nm</text>
<rect x="1844.7" y="390.0" width="61.0" height="0.0" fill="#3973ac"/>
<text x="1875.2" y="384.0" text-anchor="middle" font-family="sans-serif" font-size="11">0</text>
<text x="1875.2" y="402" transform="rotate(55 1875.2 402)" text-anchor="start" font-family="sans-serif" font-size="10">scum_probability</text>
<rect x="1931.8" y="390.0" width="61.0" height="0.0" fill="#3973ac"/>
<text x="1962.3" y="384.0" text-anchor="middle" font-family="sans-serif" font-size="11">0</text>
<text x="1962.3" y="402" transform="rotate(55 1962.3 402)" text-anchor="start" font-family="sans-serif" font-size="10">pattern_collapse_probability</text>
<rect x="2018.9" y="390.0" width="61.0" height="0.0" fill="#3973ac"/>
<text x="2049.4" y="384.0" text-anchor="middle" font-family="sans-serif" font-size="11">0</text>
<text x="2049.4" y="402" transform="rotate(55 2049.4 402)" text-anchor="start" font-family="sans-serif" font-size="10">defect_probability</text>
<rect x="2106.0" y="390.0" width="61.0" height="0.0" fill="#3973ac"/>
<text x="2136.5" y="384.0" text-anchor="middle" font-family="sans-serif" font-size="11">0</text>
<text x="2136.5" y="402" transform="rotate(55 2136.5 402)" text-anchor="start" font-family="sans-serif" font-size="10">spec_pass</text>
</svg>