<svg xmlns="http://www.w3.org/2000/svg" width="900" height="560">
<rect width="100%" height="100%" fill="white"/>
<text x="450.0" y="32" text-anchor="middle" font-family="sans-serif" font-size="20">Tool and PR tone representation</text>
<text x="18" y="230.0" transform="rotate(-90 18 230.0)" text-anchor="middle" font-family="sans-serif" font-size="13">Row count</text>
<line x1="90" y1="70" x2="90" y2="390" stroke="#333"/>
<line x1="90" y1="390" x2="870" y2="390" stroke="#333"/>
<rect x="109.2" y="98.8" width="89.8" height="291.2" fill="#c55a11"/>
<text x="154.2" y="92.8" text-anchor="middle" font-family="sans-serif" font-size="11">476</text>
<text x="154.2" y="402" transform="rotate(55 154.2 402)" text-anchor="start" font-family="sans-serif" font-size="10">Tool T01</text>
<rect x="237.6" y="260.3" width="89.8" height="129.7" fill="#c55a11"/>
<text x="282.5" y="254.3" text-anchor="middle" font-family="sans-serif" font-size="11">212</text>
<text x="282.5" y="402" transform="rotate(55 282.5 402)" text-anchor="start" font-family="sans-serif" font-size="10">Tool T02</text>
<rect x="365.9" y="318.4" width="89.8" height="71.6" fill="#c55a11"/>
<text x="410.8" y="312.4" text-anchor="middle" font-family="sans-serif" font-size="11">117</text>
<text x="410.8" y="402" transform="rotate(55 410.8 402)" text-anchor="start" font-family="sans-serif" font-size="10">Tool T03</text>
<rect x="494.2" y="383.3" width="89.8" height="6.7" fill="#c55a11"/>
<text x="539.2" y="377.3" text-anchor="middle" font-family="sans-serif" font-size="11">11</text>
<text x="539.2" y="402" transform="rotate(55 539.2 402)" text-anchor="start" font-family="sans-serif" font-size="10">Tone MISSING</text>
<rect x="622.6" y="224.2" width="89.8" height="165.8" fill="#c55a11"/>
<text x="667.5" y="218.2" text-anchor="middle" font-family="sans-serif" font-size="11">271</text>
<text x="667.5" y="402" transform="rotate(55 667.5 402)" text-anchor="start" font-family="sans-serif" font-size="10">Tone NEGATIVE</text>
<rect x="750.9" y="70.0" width="89.8" height="320.0" fill="#c55a11"/>
<text x="795.8" y="64.0" text-anchor="middle" font-family="sans-serif" font-size="11">523</text>
<text x="795.8" y="402" transform="rotate(55 795.8 402)" text-anchor="start" font-family="sans-serif" font-size="10">Tone POSITIVE</text>
</svg>